<svg width="20px" height="18px" viewBox="0 0 20 18" version="1.1" xmlns="http://www.w3.org/2000/svg" xmlns:xlink="http://www.w3.org/1999/xlink">
  <g stroke="none" stroke-width="1" fill="none" fill-rule="evenodd">
      <path d="M19.1103937,16.98 L10.2033937,0.348 C10.0793937,0.133 9.84939375,0 9.59939375,0 C9.34839375,0 9.11839375,0.133 8.99539375,0.348 L0.0893937496,16.98 C-0.0316062504,17.191 -0.0296062504,17.451 0.0943937496,17.66 C0.21939375,17.871 0.44639375,18 0.69239375,18 L18.5063937,18 C18.7513937,18 18.9803937,17.871 19.1043937,17.66 C19.2283937,17.451 19.2303937,17.191 19.1103937,16.98 Z M10.5993937,16 L8.59939375,16 L8.59939375,14 L10.5993937,14 L10.5993937,16 Z M10.5993937,12.5 L8.59939375,12.5 L8.59939375,6 L10.5993937,6 L10.5993937,12.5 Z" id="alert" fill="#fff" fill-rule="nonzero"></path>
  </g>
</svg>