
<svg width="9" viewBox="0 0 20 10" version="1.1" xmlns="http://www.w3.org/2000/svg" xmlns:xlink="http://www.w3.org/1999/xlink">
    <path d="M15.902,0.6 C13.823,0.6 11.544,1.758 10,3.516 C8.455,1.758 6.175,0.6 4.096,0.6 C2.116,0.6 0,1.756 0,5 C0,8.244 2.116,9.398 4.096,9.4 L4.096,9.4 C6.175,9.4 8.454,8.242 9.999,6.484 C11.543,8.242 13.822,9.4 15.901,9.4 C17.882,9.4 20,8.244 20,5 C20,1.756 17.882,0.6 15.902,0.6 Z M4.096,7.641 C2.584,7.641 1.8,6.752 1.8,5 C1.8,3.248 2.584,2.359 4.096,2.359 C5.769,2.359 7.71,3.445 8.903,5 C7.71,6.555 5.769,7.641 4.096,7.641 Z M15.902,7.641 C14.229,7.641 12.288,6.555 11.095,5 C12.287,3.445 14.23,2.359 15.902,2.359 C17.414,2.359 18.2,3.248 18.2,5 C18.2,6.752 17.414,7.641 15.902,7.641 Z" id="Shape" fill="#fff"></path>
</svg>
