<svg width="90px" viewBox="0 0 72 33" version="1.1" xmlns="http://www.w3.org/2000/svg" xmlns:xlink="http://www.w3.org/1999/xlink">
  <g stroke="none" stroke-width="1" fill="none" fill-rule="evenodd">
    <path d="M3.584,24.896 C3.36,25.376 3.104,25.504 2.848,25.504 C2.08,25.504 0,24.288 0,23.36 C1.888,19.392 10.688,2.56 11.04,1.184 C11.264,0.32 12.256,0.064 12.96,0.064 C13.472,0.064 14.304,0.32 15.072,0.736 C16.128,0.288 17.28,0 18.368,0 C20.256,0 22.016,0.896 22.944,3.424 C23.456,4 23.712,4.576 23.712,5.152 C23.712,8.224 17.344,11.36 14.816,12.448 L14.784,12.48 C14.784,12.544 14.848,12.608 14.88,12.608 C18.08,12.928 19.424,14.528 19.424,16.48 C19.424,20.032 15.008,24.672 9.12,24.672 C7.552,24.672 5.408,24.288 4.608,22.88 C4.256,23.552 3.904,24.224 3.584,24.896 Z M5.728,20.736 C6.016,20.96 6.464,21.12 7.104,21.12 C10.112,21.12 14.816,17.664 14.816,15.488 C14.816,14.464 13.792,13.728 11.168,13.728 C10.624,13.728 10.144,13.696 9.824,13.472 C8.32,16 6.976,18.4 5.728,20.736 Z M11.296,11.072 C13.664,10.016 18.976,7.168 18.976,4.768 C18.976,4.288 18.368,4 17.44,4 C16.992,4 16.48,4.064 15.936,4.192 C14.208,6.624 12.672,8.896 11.296,11.072 Z M21.696,22.72 C22.592,22.72 24.384,20.672 25.76,18.24 C26.656,15.616 28.128,12.128 28.832,11.232 C28.832,11.232 32.128,11.456 32.128,12.992 C32.128,13.28 32,13.6 31.744,13.984 C29.92,16.608 28.288,19.424 28.288,21.632 C28.288,22.624 28.608,23.488 29.376,24.192 C29.504,24.32 29.568,24.448 29.568,24.544 C29.568,25.152 28.736,25.728 27.808,25.728 C26.592,25.728 25.184,24.736 25.024,21.632 C23.616,23.328 21.888,24.64 20.672,24.64 C19.712,24.64 19.04,23.84 19.04,21.76 C19.04,17.408 22.432,12.064 22.432,10.208 C22.432,9.888 22.144,9.632 22.144,9.312 C22.144,9.184 22.24,9.056 22.496,8.928 C23.072,8.64 24.256,8.288 25.248,8.288 C26.176,8.288 26.944,8.608 26.944,9.536 C26.944,11.904 21.12,20.32 21.12,21.632 C21.12,22.4 21.344,22.72 21.696,22.72 Z M32.576,28.96 C33.312,27.392 34.048,25.824 34.688,24.288 C34.208,24.608 33.76,24.768 33.408,24.768 C32,24.768 30.688,23.872 30.688,22.368 C30.688,17.568 35.424,8.544 41.024,8.544 C42.88,8.544 43.488,9.76 43.488,10.912 C43.488,11.968 42.976,12.96 42.432,12.96 C42.016,12.96 41.568,12.64 40.544,12.64 C35.872,12.64 33.024,19.616 33.024,21.888 C33.024,22.304 33.12,22.56 33.344,22.56 C35.264,22.56 38.688,16.256 39.264,13.28 C39.616,13.184 39.968,13.152 40.32,13.152 C41.76,13.152 43.008,13.856 43.008,14.528 C43.008,14.656 42.912,14.848 42.752,15.072 C40.448,18.592 38.24,22.912 35.616,28.64 C34.656,30.784 32.768,32.864 30.816,32.864 C28,32.864 26.912,31.456 26.912,30.016 C26.912,28.544 28.096,27.04 29.664,27.04 C29.696,27.04 29.728,27.072 29.728,27.104 C29.568,27.488 29.504,27.904 29.504,28.32 C29.504,29.536 30.08,30.624 30.88,30.624 C31.392,30.624 32,30.176 32.576,28.96 Z M43.616,28.96 C44.352,27.392 45.088,25.824 45.728,24.288 C45.248,24.608 44.8,24.768 44.448,24.768 C43.04,24.768 41.728,23.872 41.728,22.368 C41.728,17.568 46.464,8.544 52.064,8.544 C53.92,8.544 54.528,9.76 54.528,10.912 C54.528,11.968 54.016,12.96 53.472,12.96 C53.056,12.96 52.608,12.64 51.584,12.64 C46.912,12.64 44.064,19.616 44.064,21.888 C44.064,22.304 44.16,22.56 44.384,22.56 C46.304,22.56 49.728,16.256 50.304,13.28 C50.656,13.184 51.008,13.152 51.36,13.152 C52.8,13.152 54.048,13.856 54.048,14.528 C54.048,14.656 53.952,14.848 53.792,15.072 C51.488,18.592 49.28,22.912 46.656,28.64 C45.696,30.784 43.808,32.864 41.856,32.864 C39.04,32.864 37.952,31.456 37.952,30.016 C37.952,28.544 39.136,27.04 40.704,27.04 C40.736,27.04 40.768,27.072 40.768,27.104 C40.608,27.488 40.544,27.904 40.544,28.32 C40.544,29.536 41.12,30.624 41.92,30.624 C42.432,30.624 43.04,30.176 43.616,28.96 Z M52.736,23.264 C52.736,19.552 55.904,12.512 56.576,10.784 C56.8,10.24 57.792,9.984 58.816,9.984 C59.936,9.984 61.088,10.304 61.088,10.976 C61.088,12.992 55.2,19.392 55.2,21.664 C55.2,22.016 55.36,22.176 55.648,22.176 C56.64,22.176 59.008,20.192 60.608,17.056 C62.496,12.576 63.36,10.464 63.776,9.44 C64.064,8.704 64.768,8.544 65.312,8.544 C66.272,8.544 67.648,9.664 67.648,10.752 C67.648,11.04 67.552,11.328 67.424,11.52 C65.312,14.752 62.752,19.296 59.648,25.856 C62.656,25.92 64.224,26.144 69.248,26.848 C71.168,27.104 71.392,27.168 71.392,27.232 C71.392,27.36 70.752,27.584 69.856,28.096 C68.416,28.224 69.632,28.768 67.808,28.768 C67.552,28.768 67.232,28.768 66.848,28.736 C64.128,28.576 62.112,27.872 58.848,27.584 C57.152,31.328 54.976,32.416 53.024,32.416 C51.008,32.416 49.248,31.232 49.248,29.44 C49.248,26.848 52.192,25.92 56.704,25.856 L58.144,22.688 C56.704,24 55.104,24.928 54.016,24.928 C53.248,24.928 52.736,24.448 52.736,23.264 Z M55.488,28.48 L55.968,27.456 L55.936,27.456 C53.6,27.456 52.032,27.936 52.032,29.216 C52.032,29.952 52.512,30.688 53.248,30.688 C53.888,30.688 54.688,30.112 55.488,28.48 Z" id="Buggy" fill="currentColor"></path>
  </g>
</svg>
